# xmcd
#
# Track frame offsets:
# 182
# 11990
# 25997
# 37450
# 51327
# 62237
# 78527
# 89790
# 103065
# 130185
# 142912
# 156517
# 169167
# 182815
# 194360
# 205970
# 215945
# 231062
# 243707
# 257895
# 273240
# 284510
#
# Disc length: 4012 seconds
#
# Revision: 1
# Processed by: cddbd v1.5.1PL0 Copyright (c) Steve Scherf et al.
# Submitted via: CedeCatalogueitor 2.6.0.6 http://personales.ya.com/cdcatalogueitor
#
DISCID=670faa16
DTITLE=Leslie Uggams-Marlena Shaw-Cissy Houston - Ladies Of The Soul
DYEAR=1992
DGENRE=
TTITLE0=Love Is A Good Foundation
TTITLE1=Try To See It My Way
TTITLE2=Loving You Is Sweeter Then Ever
TTITLE3=Je Vous Aime Oui Je Fais
TTITLE4=Brighten Hill
TTITLE5=Oh Lord What Are You Doing To Me
TTITLE6=I Just Can't Help Believin'
TTITLE7=The Weight Song
TTITLE8=Woman Of The Ghetto
TTITLE9=I'm Satisfied
TTITLE10=California Soul
TTITLE11=Go Away, Little Boy
TTITLE12=Looking Thru The Eyes Of Love
TTITLE13=The Eyes Of Love
TTITLE14=It Sure Is Groovy
TTITLE15=I Just Don't Know What To Do With Myself
TTITLE16=Didn't We
TTITLE17=I'll Be There
TTITLE18=When Something Is Wrong With My Baby
TTITLE19=Be My Baby
TTITLE20=This Empty Place
TTITLE21=The Long And Winding Road
EXTD=Compilation
EXTT0=
EXTT1=
EXTT2=
EXTT3=
EXTT4=
EXTT5=
EXTT6=
EXTT7=
EXTT8=
EXTT9=
EXTT10=
EXTT11=
EXTT12=
EXTT13=
EXTT14=
EXTT15=
EXTT16=
EXTT17=
EXTT18=
EXTT19=
EXTT20=
EXTT21=
PLAYORDER=
